<svg width="306" height="197" viewBox="0 0 306 197" fill="none" xmlns="http://www.w3.org/2000/svg">
<path d="M305.875 54.8194L274.849 54.8194C269.88 46.3261 263.034 39.0306 254.753 33.4772L272.751 15.7283L257.182 0.375L233.223 24.0039C228.143 22.8061 222.954 22.1528 217.544 22.1528C212.133 22.1528 206.944 22.8061 201.975 24.0039L177.905 0.375L162.337 15.7283L180.224 33.4772C172.053 39.0306 165.207 46.3261 160.239 54.8194L129.212 54.8194L129.212 76.5972L152.289 76.5972C151.737 80.1906 151.295 83.7839 151.295 87.4861L151.295 98.375L129.212 98.375L129.212 120.153L151.295 120.153L151.295 131.042C151.295 134.744 151.737 138.337 152.289 141.931L129.212 141.931L129.212 163.708L160.239 163.708C171.722 183.199 193.032 196.375 217.544 196.375C242.056 196.375 263.366 183.199 274.849 163.708L305.875 163.708L305.875 141.931L282.798 141.931C283.351 138.337 283.792 134.744 283.792 131.042V120.153L305.875 120.153L305.875 98.375L283.792 98.375L283.792 87.4861C283.792 83.7839 283.351 80.1906 282.798 76.5972L305.875 76.5972V54.8194ZM261.709 98.375L261.709 131.042C261.709 133.437 261.378 136.159 260.936 138.664L259.832 145.742L255.747 152.819C247.797 166.322 233.223 174.597 217.544 174.597C201.865 174.597 187.29 166.213 179.34 152.819L175.255 145.851L174.151 138.773C173.709 136.268 173.378 133.546 173.378 131.042L173.378 87.4861C173.378 84.9817 173.709 82.2594 174.151 79.8639L175.255 72.7861L179.34 65.7083C182.653 60.0461 187.29 55.1461 192.701 51.4439L198.994 47.1972L207.165 45.2372C210.588 44.3661 214.121 43.9306 217.544 43.9306C221.077 43.9306 224.5 44.3661 228.033 45.2372L235.541 46.9795L242.276 51.5528C247.797 55.255 252.324 60.0461 255.637 65.8172L259.832 72.895L260.936 79.9728C261.378 82.3683 261.709 85.0906 261.709 87.4861L261.709 98.375ZM195.461 120.153L239.627 120.153L239.627 141.931L195.461 141.931L195.461 120.153ZM195.461 76.5972L239.627 76.5972L239.627 98.375L195.461 98.375L195.461 76.5972Z" fill="#F2C94C"/>
<rect x="108" y="142" width="44" height="22" transform="rotate(180 108 142)" fill="#12B8A4"/>
<rect x="108" y="98" width="44" height="21" transform="rotate(180 108 98)" fill="#12B8A4"/>
<rect x="44" y="120" width="44" height="22" transform="rotate(180 44 120)" fill="#12B8A4"/>
</svg>
